<svg width="512" height="512" viewBox="0 0 512 512" fill="none" xmlns="http://www.w3.org/2000/svg">
<rect x="69" y="69" width="375" height="375" fill="white"/>
<path fill-rule="evenodd" clip-rule="evenodd" d="M97.5238 0C43.6629 0 0 43.6629 0 97.5238V414.476C0 468.337 43.6629 512 97.5238 512H414.476C468.337 512 512 468.337 512 414.476V97.5238C512 43.6629 468.337 0 414.476 0H97.5238ZM130.98 339.132L94.753 421.558H253.229C296.977 396.594 329.234 361.74 340.088 321.234C351.697 277.909 324.538 250.716 302.664 228.814C287.917 214.048 275.572 201.688 279.129 188.411C280.77 182.288 282.881 178.049 287.43 173.81H383.004L419.483 90.442H151.292L205.849 163.448C199.045 174.281 194.066 185.585 190.784 197.831C180.472 236.316 204.986 259.246 226.386 279.264C242.963 294.77 257.671 308.529 252.879 326.415C251.743 330.654 249.758 334.422 246.546 339.132H130.98Z" fill="black"/>
</svg>
